# Blender v2.90.0 OBJ File: 'bigsword.blend'
# www.blender.org
mtllib bigsword.mtl
o 圓柱體.001
v 0.125000 0.000000 0.500000
v 0.125000 -0.000000 -0.500000
v 0.122598 0.024386 -0.500000
v 0.122598 0.024386 0.500000
v 0.115485 0.047835 -0.500000
v 0.115485 0.047835 0.500000
v 0.103934 0.069446 -0.500000
v 0.103934 0.069446 0.500000
v 0.088388 0.088388 -0.500000
v 0.088388 0.088388 0.500000
v 0.069446 0.103934 -0.500000
v 0.069446 0.103934 0.500000
v 0.047835 0.115485 -0.500000
v 0.047835 0.115485 0.500000
v 0.024386 0.122598 -0.500000
v 0.024386 0.122598 0.500000
v 0.000000 0.125000 -0.500000
v 0.000000 0.125000 0.500000
v -0.024386 0.122598 -0.500000
v -0.024386 0.122598 0.500000
v -0.047835 0.115485 -0.500000
v -0.047835 0.115485 0.500000
v -0.069446 0.103934 -0.500000
v -0.069446 0.103934 0.500000
v -0.088388 0.088388 -0.500000
v -0.088388 0.088388 0.500000
v -0.103934 0.069446 -0.500000
v -0.103934 0.069446 0.500000
v -0.115485 0.047835 -0.500000
v -0.115485 0.047835 0.500000
v -0.122598 0.024386 -0.500000
v -0.122598 0.024386 0.500000
v -0.125000 -0.000000 -0.500000
v -0.125000 0.000000 0.500000
v -0.122598 -0.024386 -0.500000
v -0.122598 -0.024386 0.500000
v -0.115485 -0.047835 -0.500000
v -0.115485 -0.047835 0.500000
v -0.103934 -0.069446 -0.500000
v -0.103934 -0.069446 0.500000
v -0.088388 -0.088388 -0.500000
v -0.088388 -0.088388 0.500000
v -0.069446 -0.103934 -0.500000
v -0.069446 -0.103934 0.500000
v -0.047835 -0.115485 -0.500000
v -0.047835 -0.115485 0.500000
v -0.024386 -0.122598 -0.500000
v -0.024386 -0.122598 0.500000
v 0.000000 -0.125000 -0.500000
v 0.000000 -0.125000 0.500000
v 0.024386 -0.122598 -0.500000
v 0.024386 -0.122598 0.500000
v 0.047836 -0.115485 -0.500000
v 0.047836 -0.115485 0.500000
v 0.069446 -0.103934 -0.500000
v 0.069446 -0.103934 0.500000
v 0.088388 -0.088388 -0.500000
v 0.088388 -0.088388 0.500000
v 0.103934 -0.069446 -0.500000
v 0.103934 -0.069446 0.500000
v 0.115485 -0.047835 -0.500000
v 0.115485 -0.047835 0.500000
v 0.122598 -0.024386 -0.500000
v 0.122598 -0.024386 0.500000
vt 0.151404 0.386395
vt 0.151404 0.353553
vt 0.153457 0.353553
vt 0.153457 0.386395
vt 0.155509 0.353553
vt 0.155509 0.386395
vt 0.157562 0.353553
vt 0.157562 0.386395
vt 0.159614 0.353553
vt 0.159614 0.386395
vt 0.161667 0.353553
vt 0.161667 0.386395
vt 0.163719 0.353553
vt 0.163719 0.386395
vt 0.165772 0.353553
vt 0.165772 0.386395
vt 0.167825 0.353553
vt 0.167825 0.386395
vt 0.169877 0.353553
vt 0.169877 0.386395
vt 0.171930 0.353553
vt 0.171930 0.386395
vt 0.173982 0.353553
vt 0.173982 0.386395
vt 0.176035 0.353553
vt 0.176035 0.386395
vt 0.178087 0.353553
vt 0.178087 0.386395
vt 0.180140 0.353553
vt 0.180140 0.386395
vt 0.182193 0.353553
vt 0.182193 0.386395
vt 0.184245 0.353553
vt 0.184245 0.386395
vt 0.186298 0.353553
vt 0.186298 0.386395
vt 0.188350 0.353553
vt 0.188350 0.386395
vt 0.190403 0.353553
vt 0.190403 0.386395
vt 0.192456 0.353553
vt 0.192456 0.386395
vt 0.194508 0.353553
vt 0.194508 0.386395
vt 0.196561 0.353553
vt 0.196561 0.386395
vt 0.198613 0.353553
vt 0.198613 0.386395
vt 0.200666 0.353553
vt 0.200666 0.386395
vt 0.202718 0.353553
vt 0.202718 0.386395
vt 0.204771 0.353553
vt 0.204771 0.386395
vt 0.206824 0.353553
vt 0.206824 0.386395
vt 0.208876 0.353553
vt 0.208876 0.386395
vt 0.210929 0.353553
vt 0.210929 0.386395
vt 0.212981 0.353553
vt 0.212981 0.386395
vt 0.197591 0.387354
vt 0.200666 0.387052
vt 0.203741 0.387354
vt 0.206698 0.388251
vt 0.209424 0.389708
vt 0.211813 0.391669
vt 0.213773 0.394057
vt 0.215230 0.396783
vt 0.216127 0.399740
vt 0.216430 0.402815
vt 0.216127 0.405891
vt 0.215230 0.408848
vt 0.213773 0.411573
vt 0.211813 0.413962
vt 0.209424 0.415922
vt 0.206698 0.417379
vt 0.203741 0.418276
vt 0.200666 0.418579
vt 0.197591 0.418276
vt 0.194633 0.417379
vt 0.191908 0.415922
vt 0.189519 0.413962
vt 0.187559 0.411573
vt 0.186102 0.408848
vt 0.185205 0.405891
vt 0.184902 0.402815
vt 0.185205 0.399740
vt 0.186102 0.396783
vt 0.187559 0.394057
vt 0.189519 0.391669
vt 0.191908 0.389708
vt 0.194633 0.388251
vt 0.215034 0.353553
vt 0.215034 0.386395
vt 0.217086 0.353553
vt 0.217086 0.386395
vt 0.167825 0.387052
vt 0.164749 0.387354
vt 0.161792 0.388251
vt 0.159067 0.389708
vt 0.156678 0.391669
vt 0.154717 0.394057
vt 0.153261 0.396783
vt 0.152364 0.399740
vt 0.152061 0.402815
vt 0.152364 0.405891
vt 0.153261 0.408848
vt 0.154717 0.411573
vt 0.156678 0.413962
vt 0.159067 0.415922
vt 0.161792 0.417379
vt 0.164749 0.418276
vt 0.167825 0.418579
vt 0.170900 0.418276
vt 0.173857 0.417379
vt 0.176582 0.415922
vt 0.178971 0.413962
vt 0.180932 0.411573
vt 0.182388 0.408848
vt 0.183286 0.405891
vt 0.183588 0.402815
vt 0.183286 0.399740
vt 0.182388 0.396783
vt 0.180932 0.394057
vt 0.178971 0.391669
vt 0.176582 0.389708
vt 0.173857 0.388251
vt 0.170900 0.387354
vn 0.9952 0.0980 -0.0000
vn 0.9569 0.2903 -0.0000
vn 0.8819 0.4714 -0.0000
vn 0.7730 0.6344 -0.0000
vn 0.6344 0.7730 -0.0000
vn 0.4714 0.8819 -0.0000
vn 0.2903 0.9569 -0.0000
vn 0.0980 0.9952 -0.0000
vn -0.0980 0.9952 -0.0000
vn -0.2903 0.9569 -0.0000
vn -0.4714 0.8819 -0.0000
vn -0.6344 0.7730 -0.0000
vn -0.7730 0.6344 -0.0000
vn -0.8819 0.4714 -0.0000
vn -0.9569 0.2903 -0.0000
vn -0.9952 0.0980 -0.0000
vn -0.9952 -0.0980 0.0000
vn -0.9569 -0.2903 0.0000
vn -0.8819 -0.4714 0.0000
vn -0.7730 -0.6344 0.0000
vn -0.6344 -0.7730 0.0000
vn -0.4714 -0.8819 0.0000
vn -0.2903 -0.9569 0.0000
vn -0.0980 -0.9952 0.0000
vn 0.0980 -0.9952 0.0000
vn 0.2903 -0.9569 0.0000
vn 0.4714 -0.8819 0.0000
vn 0.6344 -0.7730 0.0000
vn 0.7730 -0.6344 0.0000
vn 0.8819 -0.4714 0.0000
vn 0.0000 -0.0000 -1.0000
vn 0.9569 -0.2903 0.0000
vn 0.9952 -0.0980 0.0000
vn 0.0000 0.0000 1.0000
usemtl 材質.007
s 1
f 1/1/1 2/2/1 3/3/1 4/4/1
f 4/4/2 3/3/2 5/5/2 6/6/2
f 6/6/3 5/5/3 7/7/3 8/8/3
f 8/8/4 7/7/4 9/9/4 10/10/4
f 10/10/5 9/9/5 11/11/5 12/12/5
f 12/12/6 11/11/6 13/13/6 14/14/6
f 14/14/7 13/13/7 15/15/7 16/16/7
f 16/16/8 15/15/8 17/17/8 18/18/8
f 18/18/9 17/17/9 19/19/9 20/20/9
f 20/20/10 19/19/10 21/21/10 22/22/10
f 22/22/11 21/21/11 23/23/11 24/24/11
f 24/24/12 23/23/12 25/25/12 26/26/12
f 26/26/13 25/25/13 27/27/13 28/28/13
f 28/28/14 27/27/14 29/29/14 30/30/14
f 30/30/15 29/29/15 31/31/15 32/32/15
f 32/32/16 31/31/16 33/33/16 34/34/16
f 34/34/17 33/33/17 35/35/17 36/36/17
f 36/36/18 35/35/18 37/37/18 38/38/18
f 38/38/19 37/37/19 39/39/19 40/40/19
f 40/40/20 39/39/20 41/41/20 42/42/20
f 42/42/21 41/41/21 43/43/21 44/44/21
f 44/44/22 43/43/22 45/45/22 46/46/22
f 46/46/23 45/45/23 47/47/23 48/48/23
f 48/48/24 47/47/24 49/49/24 50/50/24
f 50/50/25 49/49/25 51/51/25 52/52/25
f 52/52/26 51/51/26 53/53/26 54/54/26
f 54/54/27 53/53/27 55/55/27 56/56/27
f 56/56/28 55/55/28 57/57/28 58/58/28
f 58/58/29 57/57/29 59/59/29 60/60/29
f 60/60/30 59/59/30 61/61/30 62/62/30
f 3/63/31 2/64/31 63/65/31 61/66/31 59/67/31 57/68/31 55/69/31 53/70/31 51/71/31 49/72/31 47/73/31 45/74/31 43/75/31 41/76/31 39/77/31 37/78/31 35/79/31 33/80/31 31/81/31 29/82/31 27/83/31 25/84/31 23/85/31 21/86/31 19/87/31 17/88/31 15/89/31 13/90/31 11/91/31 9/92/31 7/93/31 5/94/31
f 62/62/32 61/61/32 63/95/32 64/96/32
f 64/96/33 63/95/33 2/97/33 1/98/33
f 1/99/34 4/100/34 6/101/34 8/102/34 10/103/34 12/104/34 14/105/34 16/106/34 18/107/34 20/108/34 22/109/34 24/110/34 26/111/34 28/112/34 30/113/34 32/114/34 34/115/34 36/116/34 38/117/34 40/118/34 42/119/34 44/120/34 46/121/34 48/122/34 50/123/34 52/124/34 54/125/34 56/126/34 58/127/34 60/128/34 62/129/34 64/130/34
o 圓錐體.001
v 0.250000 0.000000 0.380508
v 0.000000 0.000000 0.880508
v 0.245196 -0.048773 0.380508
v 0.230970 -0.095671 0.380508
v 0.207867 -0.138893 0.380508
v 0.176777 -0.176777 0.380507
v 0.138893 -0.207867 0.380507
v 0.095671 -0.230970 0.380507
v 0.048773 -0.245196 0.380507
v 0.000000 -0.250000 0.380507
v -0.048773 -0.245196 0.380507
v -0.095671 -0.230970 0.380507
v -0.138893 -0.207867 0.380507
v -0.176777 -0.176777 0.380507
v -0.207867 -0.138893 0.380508
v -0.230970 -0.095671 0.380508
v -0.245196 -0.048772 0.380508
v -0.250000 0.000000 0.380508
v -0.245196 0.048773 0.380508
v -0.230970 0.095671 0.380508
v -0.207867 0.138893 0.380508
v -0.176777 0.176777 0.380508
v -0.138892 0.207868 0.380508
v -0.095671 0.230970 0.380508
v -0.048772 0.245196 0.380508
v 0.000000 0.250000 0.380508
v 0.048773 0.245196 0.380508
v 0.095671 0.230970 0.380508
v 0.138893 0.207867 0.380508
v 0.176777 0.176776 0.380508
v 0.207868 0.138892 0.380508
v 0.230970 0.095671 0.380508
v 0.245196 0.048772 0.380508
vt 0.466979 0.281700
vt 0.466979 0.250000
vt 0.473164 0.281091
vt 0.479110 0.279287
vt 0.484591 0.276358
vt 0.489394 0.272415
vt 0.493337 0.267612
vt 0.496266 0.262131
vt 0.498070 0.256184
vt 0.498679 0.250000
vt 0.498070 0.243816
vt 0.496266 0.237869
vt 0.493337 0.232388
vt 0.489394 0.227585
vt 0.484591 0.223642
vt 0.479110 0.220713
vt 0.473164 0.218909
vt 0.466979 0.218300
vt 0.460795 0.218909
vt 0.454848 0.220713
vt 0.449368 0.223642
vt 0.444564 0.227585
vt 0.440622 0.232388
vt 0.437692 0.237869
vt 0.435888 0.243816
vt 0.435279 0.250000
vt 0.435888 0.256184
vt 0.437692 0.262131
vt 0.440622 0.267612
vt 0.444564 0.272415
vt 0.449368 0.276358
vt 0.454848 0.279287
vt 0.533021 0.281700
vt 0.539205 0.281091
vt 0.545152 0.279287
vt 0.550632 0.276358
vt 0.555436 0.272415
vt 0.559378 0.267612
vt 0.562308 0.262131
vt 0.564112 0.256184
vt 0.564721 0.250000
vt 0.564112 0.243816
vt 0.562308 0.237869
vt 0.559378 0.232388
vt 0.555436 0.227585
vt 0.550632 0.223642
vt 0.545152 0.220713
vt 0.539205 0.218909
vt 0.533021 0.218300
vt 0.526836 0.218909
vt 0.520890 0.220713
vt 0.515409 0.223642
vt 0.510606 0.227585
vt 0.506663 0.232388
vt 0.503734 0.237869
vt 0.501930 0.243816
vt 0.501321 0.250000
vt 0.501930 0.256184
vt 0.503734 0.262131
vt 0.506663 0.267612
vt 0.510606 0.272415
vt 0.515409 0.276358
vt 0.520890 0.279287
vt 0.526836 0.281091
vt 0.460795 0.281091
vn 0.8910 -0.0878 0.4455
vn 0.8567 -0.2599 0.4455
vn 0.7896 -0.4220 0.4455
vn 0.6921 -0.5680 0.4455
vn 0.5680 -0.6921 0.4455
vn 0.4220 -0.7896 0.4455
vn 0.2599 -0.8567 0.4455
vn 0.0878 -0.8910 0.4455
vn -0.0878 -0.8910 0.4455
vn -0.2599 -0.8567 0.4455
vn -0.4220 -0.7896 0.4455
vn -0.5680 -0.6921 0.4455
vn -0.6921 -0.5680 0.4455
vn -0.7896 -0.4220 0.4455
vn -0.8567 -0.2599 0.4455
vn -0.8910 -0.0878 0.4455
vn -0.8910 0.0878 0.4455
vn -0.8567 0.2599 0.4455
vn -0.7896 0.4220 0.4455
vn -0.6921 0.5680 0.4455
vn -0.5680 0.6921 0.4455
vn -0.4220 0.7896 0.4455
vn -0.2599 0.8567 0.4455
vn -0.0878 0.8910 0.4455
vn 0.0878 0.8910 0.4455
vn 0.2599 0.8567 0.4455
vn 0.4220 0.7896 0.4455
vn 0.5680 0.6921 0.4455
vn 0.6921 0.5680 0.4455
vn 0.7896 0.4220 0.4455
vn -0.0000 0.0000 -1.0000
vn 0.8567 0.2599 0.4455
vn 0.8910 0.0878 0.4455
usemtl 材質.008
s 1
f 65/131/35 66/132/35 67/133/35
f 67/133/36 66/132/36 68/134/36
f 68/134/37 66/132/37 69/135/37
f 69/135/38 66/132/38 70/136/38
f 70/136/39 66/132/39 71/137/39
f 71/137/40 66/132/40 72/138/40
f 72/138/41 66/132/41 73/139/41
f 73/139/42 66/132/42 74/140/42
f 74/140/43 66/132/43 75/141/43
f 75/141/44 66/132/44 76/142/44
f 76/142/45 66/132/45 77/143/45
f 77/143/46 66/132/46 78/144/46
f 78/144/47 66/132/47 79/145/47
f 79/145/48 66/132/48 80/146/48
f 80/146/49 66/132/49 81/147/49
f 81/147/50 66/132/50 82/148/50
f 82/148/51 66/132/51 83/149/51
f 83/149/52 66/132/52 84/150/52
f 84/150/53 66/132/53 85/151/53
f 85/151/54 66/132/54 86/152/54
f 86/152/55 66/132/55 87/153/55
f 87/153/56 66/132/56 88/154/56
f 88/154/57 66/132/57 89/155/57
f 89/155/58 66/132/58 90/156/58
f 90/156/59 66/132/59 91/157/59
f 91/157/60 66/132/60 92/158/60
f 92/158/61 66/132/61 93/159/61
f 93/159/62 66/132/62 94/160/62
f 94/160/63 66/132/63 95/161/63
f 95/161/64 66/132/64 96/162/64
f 65/163/65 67/164/65 68/165/65 69/166/65 70/167/65 71/168/65 72/169/65 73/170/65 74/171/65 75/172/65 76/173/65 77/174/65 78/175/65 79/176/65 80/177/65 81/178/65 82/179/65 83/180/65 84/181/65 85/182/65 86/183/65 87/184/65 88/185/65 89/186/65 90/187/65 91/188/65 92/189/65 93/190/65 94/191/65 95/192/65 96/193/65 97/194/65
f 96/162/66 66/132/66 97/195/66
f 97/195/67 66/132/67 65/131/67
o 立方體.005
v -0.250000 -0.625000 -0.368986
v -0.250000 -0.625000 -0.718986
v 0.250000 -0.625000 -0.718986
v 0.250000 -0.625000 -0.368986
v 0.250000 0.625000 -0.718986
v 0.250000 0.625000 -0.368986
v -0.250000 0.625000 -0.718986
v -0.250000 0.625000 -0.368986
vt 0.157044 0.725919
vt 0.187290 0.725919
vt 0.187290 0.756165
vt 0.157044 0.756165
vt 0.187290 0.786412
vt 0.157044 0.786412
vt 0.187290 0.816658
vt 0.157044 0.816658
vt 0.187290 0.846905
vt 0.157044 0.846905
vt 0.126797 0.786412
vt 0.126797 0.816658
vt 0.217537 0.786412
vt 0.217537 0.816658
vn 0.0000 -1.0000 0.0000
vn 1.0000 0.0000 0.0000
vn 0.0000 1.0000 -0.0000
vn -1.0000 0.0000 0.0000
vn 0.0000 0.0000 1.0000
vn 0.0000 -0.0000 -1.0000
usemtl 材質.009
s 1
f 98/196/68 99/197/68 100/198/68 101/199/68
f 101/199/69 100/198/69 102/200/69 103/201/69
f 103/201/70 102/200/70 104/202/70 105/203/70
f 105/203/71 104/202/71 99/204/71 98/205/71
f 101/206/72 103/201/72 105/203/72 98/207/72
f 102/200/73 100/208/73 99/209/73 104/202/73
o 立方體.006
v -0.125000 -0.150000 -0.584469
v -0.125000 -0.150001 -4.384469
v 0.125000 -0.150001 -4.384469
v 0.125000 -0.150000 -0.584469
v 0.125000 0.149999 -4.584469
v 0.125000 0.150000 -0.584469
v -0.125000 0.149999 -4.584469
v -0.125000 0.150000 -0.584469
vt 0.766154 0.749555
vt 0.789437 0.749555
vt 0.789437 0.772838
vt 0.766154 0.772838
vt 0.789437 0.796121
vt 0.766154 0.796121
vt 0.789437 0.819403
vt 0.766154 0.819403
vt 0.789437 0.842686
vt 0.766154 0.842686
vt 0.742871 0.796121
vt 0.742871 0.819403
vt 0.812719 0.796121
vt 0.812719 0.819403
vn 0.0000 -1.0000 0.0000
vn 1.0000 0.0000 0.0000
vn 0.0000 1.0000 -0.0000
vn -1.0000 0.0000 0.0000
vn 0.0000 0.0000 1.0000
vn 0.0000 -0.5547 -0.8321
usemtl 材質.010
s 1
f 106/210/74 107/211/74 108/212/74 109/213/74
f 109/213/75 108/212/75 110/214/75 111/215/75
f 111/215/76 110/214/76 112/216/76 113/217/76
f 113/217/77 112/216/77 107/218/77 106/219/77
f 109/220/78 111/215/78 113/217/78 106/221/78
f 110/214/79 108/222/79 107/223/79 112/216/79
o 立方體.007
v -0.125000 0.150000 -0.584469
v -0.125000 0.149999 -4.584469
v 0.125000 0.149999 -4.584469
v 0.125000 0.150000 -0.584469
v 0.000000 0.549999 -4.884469
v 0.000000 0.550000 -0.584469
v 0.000000 0.549999 -4.884469
v 0.000000 0.550000 -0.584469
vt 0.451017 0.775918
vt 0.469613 0.775918
vt 0.469613 0.794515
vt 0.451017 0.794515
vt 0.469613 0.813111
vt 0.451017 0.813111
vt 0.469613 0.831708
vt 0.451017 0.831708
vt 0.469613 0.850304
vt 0.451017 0.850304
vt 0.432420 0.813111
vt 0.432420 0.831708
vt 0.488210 0.813111
vt 0.488210 0.831708
vn 0.0000 -1.0000 0.0000
vn 0.9545 0.2983 -0.0000
vn 0.0000 0.0000 0.0000
vn -0.9545 0.2983 -0.0000
vn 0.0000 0.0000 1.0000
vn 0.0000 -0.6000 -0.8000
usemtl 材質.012
s 1
f 114/224/80 115/225/80 116/226/80 117/227/80
f 117/227/81 116/226/81 118/228/81 119/229/81
f 119/229/82 118/228/82 120/230/82 121/231/82
f 121/231/83 120/230/83 115/232/83 114/233/83
f 117/234/84 119/229/84 121/231/84 114/235/84
f 118/228/85 116/236/85 115/237/85 120/230/85
o 立方體.008
v 0.000000 -0.550000 -0.584469
v 0.000000 -0.550001 -4.084469
v 0.000000 -0.550001 -4.084469
v 0.000000 -0.550000 -0.584469
v 0.125000 -0.150001 -4.384469
v 0.125000 -0.150000 -0.584469
v -0.125000 -0.150001 -4.384469
v -0.125000 -0.150000 -0.584469
vt 0.443790 0.723119
vt 0.480291 0.723119
vt 0.480291 0.759620
vt 0.443790 0.759620
vt 0.480291 0.796121
vt 0.443790 0.796121
vt 0.480291 0.832621
vt 0.443790 0.832621
vt 0.480291 0.869122
vt 0.443790 0.869122
vt 0.407289 0.796121
vt 0.407289 0.832621
vt 0.516792 0.796121
vt 0.516792 0.832621
vn 0.0000 0.0000 0.0000
vn 0.9545 -0.2983 0.0000
vn 0.0000 1.0000 -0.0000
vn -0.9545 -0.2983 0.0000
vn 0.0000 0.0000 1.0000
vn 0.0000 -0.6000 -0.8000
usemtl 材質.013
s 1
f 122/238/86 123/239/86 124/240/86 125/241/86
f 125/241/87 124/240/87 126/242/87 127/243/87
f 127/243/88 126/242/88 128/244/88 129/245/88
f 129/245/89 128/244/89 123/246/89 122/247/89
f 125/248/90 127/243/90 129/245/90 122/249/90
f 126/242/91 124/250/91 123/251/91 128/244/91
o 立方體.009
v 0.000000 -0.550001 -4.082000
v 0.000000 -0.550001 -4.383000
v 0.000000 -0.550001 -4.383000
v 0.000000 -0.550001 -4.082000
v 0.125000 0.151249 -4.586000
v 0.000000 0.151249 -4.887000
v 0.000000 0.549999 -5.184500
v 0.000000 0.549999 -4.883500
v 0.000000 0.549999 -5.184500
v 0.000000 0.549999 -4.883500
v -0.125000 -0.151251 -4.383875
v 0.000000 -0.151251 -4.684875
v -0.125000 0.151249 -4.586000
v 0.000000 -0.151251 -4.684875
v 0.000000 -0.000001 -4.785500
v 0.000000 -0.000001 -4.785500
v 0.000000 0.151249 -4.887000
v 0.125000 -0.151251 -4.383875
v 0.125000 -0.000001 -4.484500
v -0.125000 -0.000001 -4.484500
vt 0.466796 0.734748
vt 0.498696 0.734748
vt 0.498696 0.766648
vt 0.466796 0.766648
vt 0.466796 0.790573
vt 0.498696 0.790573
vt 0.498696 0.798548
vt 0.466796 0.798548
vt 0.498696 0.830448
vt 0.466796 0.830448
vt 0.466796 0.854373
vt 0.498696 0.854373
vt 0.498696 0.862348
vt 0.466796 0.862348
vt 0.458821 0.798548
vt 0.458821 0.830448
vt 0.522621 0.798548
vt 0.530595 0.798548
vt 0.530595 0.830448
vt 0.522621 0.830448
vt 0.506671 0.798548
vt 0.514646 0.798548
vt 0.514646 0.830448
vt 0.506671 0.830448
vt 0.442871 0.798548
vt 0.450846 0.798548
vt 0.450846 0.830448
vt 0.442871 0.830448
vt 0.466796 0.838423
vt 0.498696 0.838423
vt 0.498696 0.846398
vt 0.466796 0.846398
vt 0.466796 0.774623
vt 0.498696 0.774623
vt 0.498696 0.782598
vt 0.466796 0.782598
vt 0.434896 0.798548
vt 0.434896 0.830448
vn 0.0000 0.0000 0.0000
vn 0.9791 0.0018 -0.2033
vn -0.9359 -0.2938 -0.1943
vn 0.0000 0.5980 0.8015
vn 0.0000 0.0000 1.0000
vn 0.0000 0.5539 0.8326
vn 0.0000 0.5556 0.8315
vn -0.8944 -0.2493 -0.3714
vn -0.8948 -0.2475 -0.3715
vn -0.8945 -0.2489 -0.3714
vn 0.8949 -0.2472 -0.3716
vn 0.8948 -0.2476 -0.3715
vn 0.8945 -0.2489 -0.3714
vn 0.9359 -0.2938 -0.1943
vn 0.0000 0.6036 0.7973
vn -0.8949 -0.2472 -0.3716
vn -0.9791 0.0018 -0.2033
vn 0.0000 0.5572 0.8304
vn 0.8944 -0.2493 -0.3714
usemtl 材質.014
s 1
f 130/252/92 131/253/92 132/254/92 133/255/92
f 134/256/93 135/257/93 136/258/93 137/259/93
f 137/259/92 136/258/92 138/260/92 139/261/92
f 140/262/94 141/263/94 131/264/94 130/265/94
f 134/266/95 137/259/95 139/261/95 142/267/95
f 143/268/96 132/269/92 131/270/92 141/271/96
f 135/272/96 144/273/96 145/274/96 146/275/96
f 147/276/97 148/277/98 149/278/98 140/279/97
f 142/280/99 146/281/99 145/282/100 149/283/101
f 147/284/102 143/285/102 144/286/103 148/287/104
f 133/255/105 132/254/105 143/285/105 147/284/105
f 133/288/106 147/276/106 140/279/106 130/289/106
f 144/273/96 143/268/96 141/271/96 145/274/96
f 149/283/101 145/282/100 141/263/107 140/262/107
f 139/261/108 138/260/108 146/281/108 142/280/108
f 136/258/92 135/272/96 146/275/96 138/260/92
f 148/277/98 134/266/109 142/267/109 149/278/98
f 148/287/104 144/286/103 135/257/110 134/256/110
