# Blender v2.90.0 OBJ File: 'untitled.blend'
# www.blender.org
mtllib stage1_floor4.mtl
o Cube.008
v -139.300812 61.649296 -25.000000
v -139.300812 61.649296 25.000000
v -62.026745 82.354790 25.000000
v -62.026745 82.354790 -25.000000
v -60.732658 77.525192 -25.000000
v -60.732658 77.525192 25.000000
v -138.006729 56.819702 25.000000
v -138.006729 56.819702 -25.000000
vt -0.000255 -0.002514
vt 0.996791 -0.002514
vt 0.996791 0.994532
vt -0.000255 0.994532
vt 0.004288 0.001691
vt 0.989462 0.001691
vt 0.989462 0.986864
vt 0.004288 0.986864
vt 0.001781 -0.001871
vt 0.985719 -0.001871
vt 0.985719 0.982066
vt 0.001781 0.982066
vt -0.000693 0.001549
vt 0.994128 0.001549
vt 0.994128 0.996370
vt -0.000693 0.996370
vt -0.005037 0.000347
vt 0.992537 0.000347
vt 0.992537 0.997921
vt -0.005037 0.997921
vt 0.001600 0.005591
vt 0.985900 0.005591
vt 0.985900 0.989890
vt 0.001600 0.989890
vn -0.2588 0.9659 0.0000
vn 0.9659 0.2588 0.0000
vn -0.0000 0.0000 1.0000
vn 0.2588 -0.9659 0.0000
vn -0.0000 0.0000 -1.0000
vn -0.9659 -0.2588 0.0000
usemtl Material.010
s 1
f 1/1/1 2/2/1 3/3/1 4/4/1
f 5/5/2 4/6/2 3/7/2 6/8/2
f 6/9/3 3/10/3 2/11/3 7/12/3
f 7/13/4 8/14/4 5/15/4 6/16/4
f 8/17/5 1/18/5 4/19/5 5/20/5
f 7/21/6 2/22/6 1/23/6 8/24/6
