# Blender v2.90.0 OBJ File: 'untitled.blend'
# www.blender.org
mtllib stage1_centre.mtl
o 立方體.003
v 35.400002 0.000000 35.400002
v 35.400002 100.000000 35.400002
v -35.400002 0.000000 35.400002
v -35.400002 100.000000 35.400002
v 35.400002 0.000000 -35.400002
v 35.400002 100.000000 -35.400002
v -35.400002 0.000000 -35.400002
v -35.400002 100.000000 -35.400002
v 0.000000 0.000000 50.000000
v 0.000000 100.000000 50.000000
v 0.000000 0.000000 -50.000000
v 0.000000 100.000000 -50.000000
v -50.000000 0.000000 0.000000
v -50.000000 100.000000 0.000000
v 50.000000 0.000000 0.000000
v 50.000000 100.000000 0.000000
v 0.000000 100.000000 0.000000
v 0.000000 0.000000 0.000000
vt 0.375000 0.125000
vt 0.625000 0.125000
vt 0.625000 0.250000
vt 0.375000 0.250000
vt 0.375000 0.375000
vt 0.625000 0.375000
vt 0.625000 0.500000
vt 0.375000 0.500000
vt 0.375000 0.625000
vt 0.625000 0.625000
vt 0.625000 0.750000
vt 0.375000 0.750000
vt 0.375000 0.875000
vt 0.625000 0.875000
vt 0.625000 1.000000
vt 0.375000 1.000000
vt 0.250000 0.625000
vt 0.250000 0.750000
vt 0.750000 0.625000
vt 0.875000 0.625000
vt 0.875000 0.750000
vt 0.750000 0.750000
vt 0.750000 0.500000
vt 0.875000 0.500000
vt 0.250000 0.500000
vt 0.375000 0.000000
vt 0.625000 0.000000
vt 0.125000 0.500000
vt 0.125000 0.625000
vt 0.125000 0.750000
vn -0.3813 0.0000 0.9245
vn -0.9245 0.0000 -0.3813
vn 0.3813 0.0000 -0.9245
vn 0.9245 0.0000 0.3813
vn 0.0000 -1.0000 0.0000
vn 0.0000 1.0000 -0.0000
vn -0.3813 0.0000 -0.9245
vn 0.3813 0.0000 0.9245
vn 0.9245 0.0000 -0.3813
vn -0.9245 0.0000 0.3813
usemtl 材質.014
s off
f 9/1/1 10/2/1 4/3/1 3/4/1
f 13/5/2 14/6/2 8/7/2 7/8/2
f 11/9/3 12/10/3 6/11/3 5/12/3
f 15/13/4 16/14/4 2/15/4 1/16/4
f 18/17/5 11/9/5 5/12/5 15/18/5
f 17/19/6 10/20/6 2/21/6 16/22/6
f 14/23/6 4/24/6 10/20/6 17/19/6
f 13/25/5 7/8/5 11/9/5 18/17/5
f 7/8/7 8/7/7 12/10/7 11/9/7
f 1/26/8 2/27/8 10/2/8 9/1/8
f 3/28/5 13/25/5 18/17/5 9/29/5
f 8/7/6 14/23/6 17/19/6 12/10/6
f 12/10/6 17/19/6 16/22/6 6/11/6
f 9/29/5 18/17/5 15/18/5 1/30/5
f 5/12/9 6/11/9 16/14/9 15/13/9
f 3/4/10 4/3/10 14/6/10 13/5/10
