# Blender v2.90.0 OBJ File: 'untitled.blend'
# www.blender.org
mtllib stage1_floor5.mtl
o 立方體.002
v 171.056671 -10.000000 -64.355652
v 171.056671 60.000000 -64.355652
v 64.990646 -10.000000 -170.421677
v 64.990646 60.000000 -170.421677
v 241.767349 -10.000000 -135.066330
v 241.767349 60.000000 -135.066330
v 135.701324 -10.000000 -241.132355
v 135.701324 60.000000 -241.132355
v 118.023659 42.500000 -117.388664
v 118.023659 60.000000 -117.388664
v 188.734344 42.500000 -188.099335
v 188.734344 60.000000 -188.099335
v 91.507156 60.000000 -143.905167
v 162.217834 -10.000000 -214.615845
v 91.507156 -10.000000 -143.905167
v 162.217834 60.000000 -214.615845
v 144.540161 -10.000000 -90.872162
v 215.250839 60.000000 -161.582840
v 144.540161 60.000000 -90.872162
v 215.250839 -10.000000 -161.582840
v 104.765411 33.750000 -130.646912
v 175.476089 60.000000 -201.357590
v 104.765411 60.000000 -130.646912
v 175.476089 33.750000 -201.357590
v 131.281906 60.000000 -104.130417
v 201.992584 33.750000 -174.841095
v 131.281906 33.750000 -104.130417
v 201.992584 60.000000 -174.841095
v 124.652786 60.000000 -110.759537
v 195.363464 42.500000 -181.470215
v 124.652786 42.500000 -110.759537
v 195.363464 60.000000 -181.470215
v 111.394531 42.500000 -124.017792
v 182.105209 60.000000 -194.728470
v 111.394531 60.000000 -124.017792
v 182.105209 42.500000 -194.728470
v 98.136276 60.000000 -137.276047
v 168.846954 25.000000 -207.986725
v 98.136276 25.000000 -137.276047
v 168.846954 60.000000 -207.986725
v 137.911041 25.000000 -97.501282
v 208.621719 60.000000 -168.211960
v 137.911041 60.000000 -97.501282
v 208.621719 25.000000 -168.211960
vt 0.375000 0.187500
vt 0.625000 0.187500
vt 0.625000 0.250000
vt 0.375000 0.250000
vt 0.625000 0.500000
vt 0.375000 0.500000
vt 0.375000 0.687500
vt 0.625000 0.687500
vt 0.625000 0.750000
vt 0.375000 0.750000
vt 0.625000 1.000000
vt 0.375000 1.000000
vt 0.125000 0.687500
vt 0.125000 0.750000
vt 0.875000 0.687500
vt 0.875000 0.750000
vt 0.625000 0.609375
vt 0.875000 0.609375
vt 0.875000 0.625000
vt 0.625000 0.625000
vt 0.125000 0.609375
vt 0.375000 0.609375
vt 0.375000 0.625000
vt 0.125000 0.625000
vt 0.375000 0.109375
vt 0.625000 0.109375
vt 0.625000 0.125000
vt 0.375000 0.125000
vt 0.625000 0.562500
vt 0.375000 0.562500
vt 0.125000 0.500000
vt 0.125000 0.562500
vt 0.875000 0.500000
vt 0.875000 0.562500
vt 0.375000 0.171875
vt 0.625000 0.171875
vt 0.375000 0.000000
vt 0.625000 0.000000
vt 0.625000 0.062500
vt 0.375000 0.062500
vt 0.625000 0.671875
vt 0.875000 0.671875
vt 0.125000 0.671875
vt 0.375000 0.671875
vt 0.375000 0.140625
vt 0.625000 0.140625
vt 0.625000 0.156250
vt 0.375000 0.156250
vt 0.375000 0.578125
vt 0.625000 0.578125
vt 0.625000 0.593750
vt 0.375000 0.593750
vt 0.125000 0.578125
vt 0.125000 0.593750
vt 0.875000 0.578125
vt 0.875000 0.593750
vt 0.375000 0.640625
vt 0.625000 0.640625
vt 0.625000 0.656250
vt 0.375000 0.656250
vt 0.125000 0.640625
vt 0.125000 0.656250
vt 0.875000 0.640625
vt 0.875000 0.656250
vt 0.375000 0.078125
vt 0.625000 0.078125
vt 0.625000 0.093750
vt 0.375000 0.093750
vn -0.7071 0.0000 0.7071
vn -0.7071 0.0000 -0.7071
vn 0.7071 0.0000 -0.7071
vn 0.7071 0.0000 0.7071
vn 0.0000 -1.0000 0.0000
vn 0.0000 1.0000 0.0000
vn -0.6830 -0.2587 -0.6830
vn 0.4825 -0.7311 0.4825
vn -0.4825 -0.7311 -0.4825
vn 0.6830 -0.2587 0.6830
usemtl 材質.011
s off
f 15/1/1 13/2/1 4/3/1 3/4/1
f 3/4/2 4/3/2 8/5/2 7/6/2
f 20/7/3 18/8/3 6/9/3 5/10/3
f 5/10/4 6/9/4 2/11/4 1/12/4
f 17/13/5 20/7/5 5/10/5 1/14/5
f 18/8/6 19/15/6 2/16/6 6/9/6
f 34/17/6 35/18/6 10/19/6 12/20/6
f 33/21/5 36/22/5 11/23/5 9/24/5
f 36/22/3 34/17/3 12/20/3 11/23/3
f 31/25/1 29/26/1 10/27/1 9/28/1
f 7/6/3 8/5/3 16/29/3 14/30/3
f 3/31/5 7/6/5 14/30/5 15/32/5
f 8/5/6 4/33/6 13/34/6 16/29/6
f 39/35/1 37/36/1 13/2/1 15/1/1
f 1/37/1 2/38/1 19/39/1 17/40/1
f 42/41/6 43/42/6 19/15/6 18/8/6
f 41/43/7 44/44/7 20/7/7 17/13/7
f 44/44/3 42/41/3 18/8/3 20/7/3
f 33/45/1 35/46/1 23/47/1 21/48/1
f 38/49/3 40/50/3 22/51/3 24/52/3
f 39/53/8 38/49/8 24/52/8 21/54/8
f 40/50/6 37/55/6 23/56/6 22/51/6
f 30/57/3 32/58/3 28/59/3 26/60/3
f 31/61/9 30/57/9 26/60/9 27/62/9
f 32/58/6 29/63/6 25/64/6 28/59/6
f 41/65/1 43/66/1 25/67/1 27/68/1
f 12/20/6 10/19/6 29/63/6 32/58/6
f 9/24/5 11/23/5 30/57/5 31/61/5
f 11/23/3 12/20/3 32/58/3 30/57/3
f 27/68/1 25/67/1 29/26/1 31/25/1
f 9/28/1 10/27/1 35/46/1 33/45/1
f 24/52/3 22/51/3 34/17/3 36/22/3
f 21/54/8 24/52/8 36/22/8 33/21/8
f 22/51/6 23/56/6 35/18/6 34/17/6
f 16/29/6 13/34/6 37/55/6 40/50/6
f 15/32/10 14/30/10 38/49/10 39/53/10
f 14/30/3 16/29/3 40/50/3 38/49/3
f 21/48/1 23/47/1 37/36/1 39/35/1
f 17/40/1 19/39/1 43/66/1 41/65/1
f 26/60/3 28/59/3 42/41/3 44/44/3
f 27/62/9 26/60/9 44/44/9 41/43/9
f 28/59/6 25/64/6 43/42/6 42/41/6
